<mxfile host="app.diagrams.net" agent="Mozilla/5.0 (Macintosh; Intel Mac OS X 10_15_7) AppleWebKit/537.36 (KHTML, like Gecko) Chrome/140.0.0.0 Safari/537.36" version="26.0.11">
  <diagram name="Sida-1" id="L07-y8UXEJwBaghetgIL">
    <mxGraphModel dx="2019" dy="753" grid="1" gridSize="10" guides="1" tooltips="1" connect="1" arrows="1" fold="1" page="1" pageScale="1" pageWidth="827" pageHeight="1169" math="0" shadow="0">
      <root>
        <mxCell id="0" />
        <mxCell id="1" parent="0" />
        <mxCell id="Rqa-_e-nAdZjuFTvBe6h-2" value="" style="rounded=0;whiteSpace=wrap;html=1;movable=0;resizable=0;rotatable=0;deletable=0;editable=0;locked=1;connectable=0;" vertex="1" parent="1">
          <mxGeometry x="10" y="280" width="760" height="510" as="geometry" />
        </mxCell>
        <mxCell id="Rqa-_e-nAdZjuFTvBe6h-3" value="" style="rounded=0;whiteSpace=wrap;html=1;fillColor=#f5f5f5;fontColor=#333333;strokeColor=#666666;movable=0;resizable=0;rotatable=0;deletable=0;editable=0;locked=1;connectable=0;" vertex="1" parent="1">
          <mxGeometry x="10" y="680" width="200" height="110" as="geometry" />
        </mxCell>
        <mxCell id="Rqa-_e-nAdZjuFTvBe6h-4" value="Elcentral&lt;br&gt;tvättstuga" style="rounded=0;whiteSpace=wrap;html=1;" vertex="1" parent="1">
          <mxGeometry x="460" y="740" width="100" height="50" as="geometry" />
        </mxCell>
        <mxCell id="Rqa-_e-nAdZjuFTvBe6h-5" value="" style="endArrow=none;html=1;rounded=0;fillColor=#d5e8d4;strokeColor=#82b366;strokeWidth=2;" edge="1" parent="1">
          <mxGeometry width="50" height="50" relative="1" as="geometry">
            <mxPoint x="230" y="770" as="sourcePoint" />
            <mxPoint x="460" y="770" as="targetPoint" />
          </mxGeometry>
        </mxCell>
        <mxCell id="Rqa-_e-nAdZjuFTvBe6h-6" value="" style="endArrow=none;html=1;rounded=0;fillColor=#d5e8d4;strokeColor=#82b366;strokeWidth=2;" edge="1" parent="1">
          <mxGeometry width="50" height="50" relative="1" as="geometry">
            <mxPoint x="230" y="770" as="sourcePoint" />
            <mxPoint x="230" y="670" as="targetPoint" />
          </mxGeometry>
        </mxCell>
        <mxCell id="Rqa-_e-nAdZjuFTvBe6h-7" value="" style="endArrow=none;html=1;rounded=0;fillColor=#d5e8d4;strokeColor=#82b366;strokeWidth=2;" edge="1" parent="1" source="Rqa-_e-nAdZjuFTvBe6h-9">
          <mxGeometry width="50" height="50" relative="1" as="geometry">
            <mxPoint x="230" y="670" as="sourcePoint" />
            <mxPoint x="20" y="673" as="targetPoint" />
          </mxGeometry>
        </mxCell>
        <mxCell id="Rqa-_e-nAdZjuFTvBe6h-10" value="" style="endArrow=none;html=1;rounded=0;fillColor=#d5e8d4;strokeColor=#82b366;strokeWidth=2;" edge="1" parent="1">
          <mxGeometry width="50" height="50" relative="1" as="geometry">
            <mxPoint x="230" y="672.67" as="sourcePoint" />
            <mxPoint x="200" y="672.3366666666666" as="targetPoint" />
          </mxGeometry>
        </mxCell>
        <mxCell id="Rqa-_e-nAdZjuFTvBe6h-9" value="" style="rounded=0;whiteSpace=wrap;html=1;fillColor=#d5e8d4;strokeColor=#82b366;" vertex="1" parent="1">
          <mxGeometry x="170" y="665" width="30" height="15" as="geometry" />
        </mxCell>
        <mxCell id="Rqa-_e-nAdZjuFTvBe6h-12" value="" style="endArrow=none;html=1;rounded=0;fillColor=#d5e8d4;strokeColor=#82b366;strokeWidth=2;" edge="1" parent="1">
          <mxGeometry width="50" height="50" relative="1" as="geometry">
            <mxPoint x="20" y="570" as="sourcePoint" />
            <mxPoint x="20" y="673" as="targetPoint" />
          </mxGeometry>
        </mxCell>
        <mxCell id="Rqa-_e-nAdZjuFTvBe6h-13" value="" style="endArrow=none;html=1;rounded=0;fillColor=#d5e8d4;strokeColor=#82b366;strokeWidth=2;" edge="1" parent="1">
          <mxGeometry width="50" height="50" relative="1" as="geometry">
            <mxPoint x="20" y="570" as="sourcePoint" />
            <mxPoint y="570" as="targetPoint" />
          </mxGeometry>
        </mxCell>
        <mxCell id="Rqa-_e-nAdZjuFTvBe6h-14" value="Uttag, cirk.pump" style="text;html=1;align=center;verticalAlign=middle;whiteSpace=wrap;rounded=0;" vertex="1" parent="1">
          <mxGeometry x="155" y="630" width="60" height="30" as="geometry" />
        </mxCell>
        <mxCell id="Rqa-_e-nAdZjuFTvBe6h-15" value="Till gillestuga" style="text;html=1;align=center;verticalAlign=middle;whiteSpace=wrap;rounded=0;" vertex="1" parent="1">
          <mxGeometry x="-80" y="555" width="80" height="30" as="geometry" />
        </mxCell>
        <mxCell id="Rqa-_e-nAdZjuFTvBe6h-16" value="" style="endArrow=none;html=1;rounded=0;fillColor=#d5e8d4;strokeColor=#82b366;strokeWidth=3;" edge="1" parent="1">
          <mxGeometry width="50" height="50" relative="1" as="geometry">
            <mxPoint x="350" y="760" as="sourcePoint" />
            <mxPoint x="460" y="760" as="targetPoint" />
          </mxGeometry>
        </mxCell>
        <mxCell id="Rqa-_e-nAdZjuFTvBe6h-17" value="" style="endArrow=none;html=1;rounded=0;fillColor=#d5e8d4;strokeColor=#82b366;strokeWidth=3;" edge="1" parent="1">
          <mxGeometry width="50" height="50" relative="1" as="geometry">
            <mxPoint x="350" y="760" as="sourcePoint" />
            <mxPoint x="350" y="290" as="targetPoint" />
          </mxGeometry>
        </mxCell>
        <mxCell id="Rqa-_e-nAdZjuFTvBe6h-20" value="" style="rounded=0;whiteSpace=wrap;html=1;fillColor=#d5e8d4;strokeColor=#82b366;" vertex="1" parent="1">
          <mxGeometry x="370" y="310" width="30" height="15" as="geometry" />
        </mxCell>
        <mxCell id="Rqa-_e-nAdZjuFTvBe6h-22" value="" style="rounded=0;whiteSpace=wrap;html=1;fillColor=#d5e8d4;strokeColor=#82b366;" vertex="1" parent="1">
          <mxGeometry x="430" y="310" width="30" height="15" as="geometry" />
        </mxCell>
        <mxCell id="Rqa-_e-nAdZjuFTvBe6h-23" value="" style="endArrow=none;html=1;rounded=0;fillColor=#d5e8d4;strokeColor=#82b366;strokeWidth=3;exitX=0.5;exitY=0;exitDx=0;exitDy=0;" edge="1" parent="1" source="Rqa-_e-nAdZjuFTvBe6h-20">
          <mxGeometry width="50" height="50" relative="1" as="geometry">
            <mxPoint x="384.92" y="320" as="sourcePoint" />
            <mxPoint x="384.92" y="290" as="targetPoint" />
            <Array as="points">
              <mxPoint x="385" y="300" />
            </Array>
          </mxGeometry>
        </mxCell>
        <mxCell id="Rqa-_e-nAdZjuFTvBe6h-24" value="" style="endArrow=none;html=1;rounded=0;fillColor=#d5e8d4;strokeColor=#82b366;strokeWidth=3;" edge="1" parent="1">
          <mxGeometry width="50" height="50" relative="1" as="geometry">
            <mxPoint x="350" y="290" as="sourcePoint" />
            <mxPoint x="450" y="290" as="targetPoint" />
          </mxGeometry>
        </mxCell>
        <mxCell id="Rqa-_e-nAdZjuFTvBe6h-27" value="" style="endArrow=none;html=1;rounded=0;fillColor=#d5e8d4;strokeColor=#82b366;strokeWidth=3;exitX=0.5;exitY=0;exitDx=0;exitDy=0;" edge="1" parent="1">
          <mxGeometry width="50" height="50" relative="1" as="geometry">
            <mxPoint x="444.88" y="310" as="sourcePoint" />
            <mxPoint x="444.8" y="290" as="targetPoint" />
            <Array as="points">
              <mxPoint x="444.88" y="300" />
            </Array>
          </mxGeometry>
        </mxCell>
        <mxCell id="Rqa-_e-nAdZjuFTvBe6h-28" value="Uttag&amp;nbsp;&lt;div&gt;tvätt + tork&lt;/div&gt;" style="text;html=1;align=center;verticalAlign=middle;whiteSpace=wrap;rounded=0;" vertex="1" parent="1">
          <mxGeometry x="415" y="330" width="60" height="30" as="geometry" />
        </mxCell>
        <mxCell id="Rqa-_e-nAdZjuFTvBe6h-29" value="Nytt uttag bänk" style="text;html=1;align=center;verticalAlign=middle;whiteSpace=wrap;rounded=0;" vertex="1" parent="1">
          <mxGeometry x="355" y="330" width="60" height="30" as="geometry" />
        </mxCell>
        <mxCell id="Rqa-_e-nAdZjuFTvBe6h-30" value="" style="endArrow=none;html=1;rounded=0;fillColor=#d5e8d4;strokeColor=#82b366;strokeWidth=3;" edge="1" parent="1">
          <mxGeometry width="50" height="50" relative="1" as="geometry">
            <mxPoint x="760" y="780" as="sourcePoint" />
            <mxPoint x="760" y="340" as="targetPoint" />
          </mxGeometry>
        </mxCell>
        <mxCell id="Rqa-_e-nAdZjuFTvBe6h-31" value="" style="endArrow=none;html=1;rounded=0;fillColor=#d5e8d4;strokeColor=#82b366;strokeWidth=3;" edge="1" parent="1">
          <mxGeometry width="50" height="50" relative="1" as="geometry">
            <mxPoint x="760" y="780" as="sourcePoint" />
            <mxPoint x="560" y="780" as="targetPoint" />
          </mxGeometry>
        </mxCell>
        <mxCell id="Rqa-_e-nAdZjuFTvBe6h-36" value="" style="endArrow=classic;html=1;rounded=0;dashed=1;" edge="1" parent="1">
          <mxGeometry width="50" height="50" relative="1" as="geometry">
            <mxPoint x="60" y="660" as="sourcePoint" />
            <mxPoint x="440" y="370" as="targetPoint" />
          </mxGeometry>
        </mxCell>
        <mxCell id="Rqa-_e-nAdZjuFTvBe6h-37" value="Uttag flyttas" style="edgeLabel;html=1;align=center;verticalAlign=middle;resizable=0;points=[];" vertex="1" connectable="0" parent="Rqa-_e-nAdZjuFTvBe6h-36">
          <mxGeometry x="-0.14" y="1" relative="1" as="geometry">
            <mxPoint as="offset" />
          </mxGeometry>
        </mxCell>
        <mxCell id="Rqa-_e-nAdZjuFTvBe6h-39" value="" style="rounded=0;whiteSpace=wrap;html=1;fillColor=#d5e8d4;strokeColor=#82b366;dashed=1;" vertex="1" parent="1">
          <mxGeometry x="40" y="660" width="30" height="15" as="geometry" />
        </mxCell>
        <mxCell id="Rqa-_e-nAdZjuFTvBe6h-41" value="Byt knapp" style="rounded=0;whiteSpace=wrap;html=1;fillColor=#dae8fc;strokeColor=#6c8ebf;" vertex="1" parent="1">
          <mxGeometry x="640" y="740" width="50" height="33" as="geometry" />
        </mxCell>
        <mxCell id="Rqa-_e-nAdZjuFTvBe6h-42" value="Byt knapp" style="rounded=0;whiteSpace=wrap;html=1;fillColor=#dae8fc;strokeColor=#6c8ebf;" vertex="1" parent="1">
          <mxGeometry x="700" y="597" width="50" height="33" as="geometry" />
        </mxCell>
        <mxCell id="Rqa-_e-nAdZjuFTvBe6h-43" value="Knappar uttag: Schneider Exacct vit" style="text;strokeColor=#6c8ebf;fillColor=#dae8fc;align=left;verticalAlign=middle;spacingLeft=4;spacingRight=4;overflow=hidden;points=[[0,0.5],[1,0.5]];portConstraint=eastwest;rotatable=0;whiteSpace=wrap;html=1;" vertex="1" parent="1">
          <mxGeometry x="530" y="160" width="110" height="30" as="geometry" />
        </mxCell>
        <mxCell id="Rqa-_e-nAdZjuFTvBe6h-44" value="Byt Uttag" style="rounded=0;whiteSpace=wrap;html=1;fillColor=#dae8fc;strokeColor=#6c8ebf;" vertex="1" parent="1">
          <mxGeometry x="590" y="740" width="50" height="33" as="geometry" />
        </mxCell>
        <mxCell id="Rqa-_e-nAdZjuFTvBe6h-47" value="LED armatur" style="rounded=1;whiteSpace=wrap;html=1;fillColor=#fff2cc;strokeColor=#d6b656;" vertex="1" parent="1">
          <mxGeometry x="80" y="470" width="220" height="40" as="geometry" />
        </mxCell>
        <mxCell id="Rqa-_e-nAdZjuFTvBe6h-49" value="LED armatur" style="rounded=1;whiteSpace=wrap;html=1;fillColor=#fff2cc;strokeColor=#d6b656;" vertex="1" parent="1">
          <mxGeometry x="430" y="470" width="220" height="40" as="geometry" />
        </mxCell>
        <mxCell id="Rqa-_e-nAdZjuFTvBe6h-51" value="Nya takarmaturer LED (dosor/ström finns i tak)" style="text;strokeColor=#d6b656;fillColor=#fff2cc;align=left;verticalAlign=middle;spacingLeft=4;spacingRight=4;overflow=hidden;points=[[0,0.5],[1,0.5]];portConstraint=eastwest;rotatable=0;whiteSpace=wrap;html=1;" vertex="1" parent="1">
          <mxGeometry x="530" y="200" width="160" height="30" as="geometry" />
        </mxCell>
        <mxCell id="Rqa-_e-nAdZjuFTvBe6h-52" value="Snygga till dragning till nästa rum" style="text;strokeColor=none;fillColor=none;align=left;verticalAlign=middle;spacingLeft=4;spacingRight=4;overflow=hidden;points=[[0,0.5],[1,0.5]];portConstraint=eastwest;rotatable=0;whiteSpace=wrap;html=1;fontColor=#97D077;" vertex="1" parent="1">
          <mxGeometry x="20" y="535" width="90" height="70" as="geometry" />
        </mxCell>
        <mxCell id="Rqa-_e-nAdZjuFTvBe6h-53" value="VP" style="whiteSpace=wrap;html=1;aspect=fixed;" vertex="1" parent="1">
          <mxGeometry x="685" y="305" width="80" height="80" as="geometry" />
        </mxCell>
        <mxCell id="Rqa-_e-nAdZjuFTvBe6h-54" value="" style="endArrow=none;html=1;rounded=0;fillColor=#f8cecc;strokeColor=#b85450;strokeWidth=4;exitX=1.003;exitY=0.906;exitDx=0;exitDy=0;exitPerimeter=0;" edge="1" parent="1" source="Rqa-_e-nAdZjuFTvBe6h-4">
          <mxGeometry width="50" height="50" relative="1" as="geometry">
            <mxPoint x="770" y="780" as="sourcePoint" />
            <mxPoint x="820" y="785" as="targetPoint" />
          </mxGeometry>
        </mxCell>
        <mxCell id="Rqa-_e-nAdZjuFTvBe6h-55" value="Inkommande el från huvudcentral&lt;div&gt;&lt;br&gt;&lt;/div&gt;" style="text;html=1;align=center;verticalAlign=middle;whiteSpace=wrap;rounded=0;" vertex="1" parent="1">
          <mxGeometry x="770" y="760" width="100" height="30" as="geometry" />
        </mxCell>
      </root>
    </mxGraphModel>
  </diagram>
</mxfile>
